<svg xmlns="http://www.w3.org/2000/svg" width="196" height="23" viewBox="0 0 196 23" class="TheLogo__svg" data-v-3200a68c=""><g fill="#2266FF" data-v-3200a68c=""><path d="M59.05 21.27L48 21.27C48.12 16.27 53.21 15.08 56.06 12.27 56.95806 11.4669166 57.4649021 10.3146711 57.45 9.11 57.4483156 8.14479357 57.0412075 7.22469687 56.3280451 6.5742927 55.6148826 5.92388853 54.6612806 5.60301759 53.7 5.69 50.95 5.69 49.88 7.89 49.92 10.35L48.44 10.35C48.37 6.91 50.16 4.42 53.79 4.42 56.71 4.4 59 6 59 9.11 59 11.91 57 13.65 54.79 15.11 53.16 16.21 50.18 17.69 49.79 19.94L59.09 19.94 59.09 21.33 59.05 21.27zM61.18 15.66L68.92 4.54 70.28 4.54 70.28 15.85 72.8 15.85 72.8 17.12 70.29 17.12 70.29 21.28 68.9 21.28 68.9 17.11 61.18 17.11 61.18 15.66zM68.9 15.85L68.9 6.74 62.59 15.85 68.9 15.85zM76.24 15.66C76.17 19.17 78.7 20.25 81.81 20.25 83.6 20.25 86.33 19.25 86.33 16.78 86.33 14.84 84.39 14.08 82.82 13.7L79 12.76C77 12.26 75.15 11.3 75.15 8.65 75.15 6.98 76.23 3.85 81.03 3.85 84.4 3.85 87.36 5.67 87.34 9.16L85.73 9.16C85.63 6.55 83.48 5.24 81.07 5.24 78.85 5.24 76.79 6.1 76.79 8.63 76.79 10.23 77.99 10.9 79.37 11.24L83.53 12.24C85.94 12.91 88 14 88 16.76 88 17.93 87.52 21.64 81.47 21.64 77.47 21.64 74.47 19.82 74.66 15.64L76.29 15.64 76.24 15.66zM91.13 15.51C91.13 17.71 92.3 20.36 95.19 20.36 97.0945084 20.4399219 98.7574978 19.0820288 99.06 17.2L100.57 17.2C99.92 20 98.3 21.62 95.19 21.62 91.27 21.62 89.62 18.62 89.62 15.09 89.62 11.84 91.27 8.56 95.19 8.56 99.11 8.56 100.74 12.03 100.62 15.49L91.13 15.49 91.13 15.51zM99.13 14.24C99.06 11.97 97.65 9.84 95.21 9.84 92.77 9.84 91.39 11.99 91.15 14.24L99.15 14.24 99.13 14.24z" data-v-3200a68c=""></path> <polygon points="101.26 8.94 102.93 8.94 106.8 19.77 106.8 19.77 110.62 8.94 112.17 8.94 107.56 21.27 106 21.27" data-v-3200a68c=""></polygon> <path d="M114.6 15.51C114.6 17.71 115.77 20.36 118.66 20.36 120.564508 20.4399219 122.227498 19.0820288 122.53 17.2L124 17.2C123.35 20 121.73 21.62 118.62 21.62 114.7 21.62 113.05 18.62 113.05 15.09 113.05 11.84 114.7 8.56 118.62 8.56 122.54 8.56 124.17 12.03 124.05 15.49L114.6 15.49 114.6 15.51zM122.6 14.24C122.53 11.97 121.12 9.84 118.68 9.84 116.24 9.84 114.86 11.99 114.62 14.24L122.62 14.24 122.6 14.24zM126.1 8.94L127.61 8.94 127.61 11.07C128.295774 9.5168649 129.852859 8.53281919 131.55 8.58 135.02 8.58 136.07 10.4 136.07 13.34L136.07 21.28 134.56 21.28 134.56 13.58C134.56 11.45 133.87 9.85 131.43 9.85 128.99 9.85 127.61 11.67 127.56 14.08L127.56 21.27 126.1 21.27 126.1 8.94zM146.39 3.85C151.74 3.85 154.39 8.08 154.39 12.74 154.39 17.4 151.71 21.63 146.39 21.63 141.07 21.63 138.33 17.4 138.33 12.74 138.33 8.08 141 3.85 146.39 3.85zM146.39 20.25C150.88 20.25 152.8 16.47 152.8 12.74 152.8 9.01 150.89 5.23 146.39 5.23 141.89 5.23 140 9 140 12.74 140 16.48 141.87 20.25 146.39 20.25zM161.43 10.21L159 10.21 159 21.27 157.49 21.27 157.49 10.21 155.39 10.21 155.39 8.94 157.49 8.94 157.49 7.82C157.49 5.69 158.06 4.21 160.49 4.21 160.915333 4.20913408 161.340044 4.24257584 161.76 4.31L161.76 5.6C161.397676 5.52708199 161.029524 5.48692 160.66 5.48 158.99 5.48 159.03 6.53 159.01 7.87L159.01 8.95 161.45 8.95 161.45 10.22 161.43 10.21z" data-v-3200a68c=""></path> <path d="M163.24 10.21L161.14 10.21 161.14 8.94 163.24 8.94 163.24 7.82C163.24 5.69 163.81 4.21 166.24 4.21 166.665333 4.20913408 167.090044 4.24257584 167.51 4.31L167.51 5.6C167.147676 5.52708199 166.779524 5.48692 166.41 5.48 164.74 5.48 164.78 6.53 164.76 7.87L164.76 8.95 167.2 8.95 167.2 10.22 164.76 10.22 164.76 21.27 163.25 21.27 163.25 10.21 163.24 10.21zM168.64 4.21L170.15 4.21 170.15 6.62 168.64 6.62 168.64 4.21zM168.64 8.94L170.15 8.94 170.15 21.27 168.64 21.27 168.64 8.94zM181.74 12.81C181.556339 11.0427069 180.024835 9.72622762 178.25 9.81 175.36 9.81 173.92 12.44 173.92 15.07 173.92 17.7 175.35 20.33 178.25 20.33 180.182926 20.2847541 181.751212 18.7514159 181.84 16.82L183.35 16.82C182.94 19.82 181.01 21.6 178.26 21.6 174.48 21.6 172.43 18.6 172.43 15.07 172.43 11.54 174.49 8.54 178.26 8.54 180.89 8.54 182.92 9.95 183.26 12.77L181.75 12.77 181.74 12.81zM186.33 15.51C186.33 17.71 187.5 20.36 190.39 20.36 192.294508 20.4399219 193.957498 19.0820288 194.26 17.2L195.77 17.2C195.12 20 193.5 21.62 190.39 21.62 186.47 21.62 184.82 18.62 184.82 15.09 184.82 11.84 186.47 8.56 190.39 8.56 194.31 8.56 195.94 12.03 195.82 15.49L186.33 15.49 186.33 15.51zM194.33 14.24C194.26 11.97 192.85 9.84 190.41 9.84 187.97 9.84 186.59 11.99 186.35 14.24L194.35 14.24 194.33 14.24zM24.24 7.36C23.1199671 7.8031782 22.2331782 8.68996715 21.79 9.81 21.1778901 8.53235316 19.8867074 7.71953033 18.47 7.72 16.4441359 7.71437515 14.8038163 6.07240956 14.8002233 4.0465408 14.7966304 2.02067203 16.4311155.37289845 18.4569469.360087762 20.4827784.347277073 22.1379718 1.97424782 22.16 4 22.1421802 5.42884426 22.9531214 6.73882617 24.24 7.36zM33.24 15.09C31.8124735 15.1020867 30.5067555 14.2874745 29.89 13 29.4468218 14.1200329 28.5600329 15.0068218 27.44 15.45 28.7159727 16.0639871 29.5280532 17.3539906 29.53 18.77 29.53 20.8024079 31.1775921 22.45 33.21 22.45 35.2424079 22.45 36.89 20.8024079 36.89 18.77 36.89 16.7375921 35.2424079 15.09 33.21 15.09L33.24 15.09zM14.79 11.41C14.79 9.3748307 13.1401693 7.725 11.105 7.725 9.0698307 7.725 7.42 9.3748307 7.42 11.41 7.42 13.4424079 5.77240788 15.09 3.74 15.09 1.70759212 15.09.06 16.7375921.06 18.77.06 20.8024079 1.70759212 22.45 3.74 22.45 5.77240788 22.45 7.42 20.8024079 7.42 18.77 7.41880813 17.0506879 8.6082715 15.5596882 10.2848766 15.1788593 11.9614817 14.7980305 13.6783368 15.6288807 14.42 17.18 14.8631782 16.0599671 15.7499671 15.1731782 16.87 14.73 15.59792 14.1131626 14.7900923 12.8237453 14.79 11.41zM25.84 7.73C23.8231112 7.72988085 22.1819227 9.35323031 22.16 11.37L22.16 11.46C22.139059 12.8579164 21.329884 14.1239462 20.07 14.73 21.1900329 15.1731782 22.0768218 16.0599671 22.52 17.18 23.1339871 15.9040273 24.4239906 15.0919468 25.84 15.09 27.8751693 15.09 29.5249999 13.4401693 29.5249999 11.405 29.5249999 9.36983073 27.8751693 7.72000004 25.84 7.72L25.84 7.73zM18.47 15.1C16.438903 15.1055193 14.796329 16.7555474 14.800006 18.7866486 14.8036831 20.8177497 16.4522206 22.4618197 18.4833243 22.4599849 20.5144279 22.4581501 22.1599925 20.8111045 22.16 18.78 22.1626652 17.8005365 21.7747544 16.8604212 21.0821666 16.1678334 20.3895788 15.4752456 19.4494635 15.0873348 18.47 15.09L18.47 15.1z" data-v-3200a68c=""></path></g></svg>