<?xml version="1.0" encoding="UTF-8"?>
<svg width="81" height="44" viewBox="0 0 81 44" fill="none" xmlns="http://www.w3.org/2000/svg">
<path d="M72.9086 31.219L80.4324 19.5343H74.2073L69.9288 26.3417L65.9556 19.5343H59.2709L66.5293 31.3686L61.3963 39.2235L54.11 19.5312H48.724L41.9097 37.4217C41.9221 37.1987 41.9344 36.9727 41.9344 36.7345C41.9344 33.256 39.9108 31.4786 36.8569 31.1762C39.1088 30.6082 40.79 28.9834 40.79 26.4119C40.79 21.156 36.971 19.5312 32.4642 19.5312H22.7255V41.2117L14.7051 19.5312H9.3191L0 44H6.41633L7.22763 41.514H16.7657L17.5277 44H22.7224H23.7528H33.7228C36.2924 44 38.7386 43.3984 40.281 41.7034L39.4049 44H45.8212L46.6325 41.514H56.1707L56.9326 44H58.2745H63.1577H64.4995L69.6172 35.9832L74.1641 44H81L72.9086 31.219ZM8.64354 37.1743L12.1448 26.4547L15.4362 37.1743H8.64354ZM28.5311 23.9596H32.4642C34.605 23.9596 34.9104 25.7004 34.9104 26.4547C34.9104 28.1955 34.1855 29.2155 33.0009 29.2155H28.5311V23.9596ZM33.4976 39.5778H28.5342V33.6041H33.078C34.7191 33.6041 36.0209 34.5112 36.0209 36.7437C36.0178 38.744 34.679 39.5778 33.4976 39.5778ZM48.0546 37.1743L51.5558 26.4547L54.8473 37.1743H48.0546Z" fill="#3D3D3F"/>
<path d="M50.1568 8.33572C51.8041 8.33572 53.3557 8.95885 54.5403 10.0971L56.1968 8.43752C54.5711 6.85812 52.4303 5.99129 50.1537 5.99129C47.8741 5.99129 45.7333 6.85812 44.1045 8.43752L45.7641 10.0971C46.9579 8.96194 48.5095 8.33572 50.1568 8.33572Z" fill="#3D3D3F"/>
<path d="M59.9262 4.64338C57.3072 2.07376 53.8553 0.657849 50.1875 0.654764H50.1166C50.0981 0.654764 50.0796 0.654764 50.0611 0.654764V0.657847V0.654764C46.4241 0.673273 42.9969 2.08919 40.3872 4.64338L42.0468 6.2999C44.2185 4.17758 47.0843 3.00536 50.1351 2.99919H50.203C53.2415 3.01462 56.098 4.18375 58.2666 6.2999L59.9262 4.64338Z" fill="#3D3D3F"/>
</svg>
