<svg width="120" height="56" viewBox="0 0 120 56" fill="none" xmlns="http://www.w3.org/2000/svg">
<path d="M1.56405 22.9875C1.68492 23.153 1.79481 23.3185 1.9047 23.4841C2.71786 24.7973 3.14641 26.265 3.14641 27.843V27.9313C3.14641 29.5094 2.71786 30.9881 1.9047 32.2903C3.21234 30.7343 5.0914 29.6528 7.26715 29.4211C11.3879 28.9797 15.4647 29.5866 19.2448 31.1536C19.3876 30.0832 19.4645 28.9907 19.4645 27.8872C19.4645 26.7836 19.3876 25.7022 19.2448 24.6207C20.2447 24.2014 21.2117 23.7269 22.1677 23.1751C23.1128 22.6233 24.0138 22.0164 24.8709 21.3543C25.7281 22.0164 26.6291 22.6233 27.5742 23.1751C28.5192 23.7269 29.4972 24.2014 30.4971 24.6207C30.3543 25.6911 30.2774 26.7836 30.2774 27.8872C30.2774 28.9907 30.3543 30.0722 30.4971 31.1536C34.2772 29.5866 38.354 28.9797 42.4747 29.4211C44.6505 29.6528 46.5296 30.7343 47.8372 32.2903C47.024 30.9771 46.5955 29.4983 46.5955 27.9313V27.843C46.5955 26.265 47.024 24.7973 47.8372 23.4841C47.9471 23.3185 48.057 23.142 48.1779 22.9875C49.98 20.4935 50.1888 17.3264 48.98 14.722C48.9471 14.6558 48.9141 14.5896 48.8811 14.5234C48.8152 14.3799 48.7383 14.2365 48.6504 14.104C48.5734 13.9606 48.4855 13.8282 48.3976 13.6957C48.3537 13.6295 48.3207 13.5743 48.2767 13.5081C46.6285 11.1576 43.7934 9.74508 40.7385 10.0761C40.5407 10.0982 40.332 10.1092 40.1342 10.1203C38.5958 10.1755 37.1123 9.81129 35.7607 9.02778L35.6838 8.98364C34.3322 8.20013 33.2663 7.08556 32.552 5.71718C32.4531 5.54061 32.3652 5.36405 32.2883 5.17645C31.0466 2.36244 28.4093 0.596782 25.5632 0.342969C25.4863 0.331934 25.4204 0.331934 25.3435 0.331934C25.2006 0.298828 25.0358 0.298828 24.8819 0.298828C24.7171 0.298828 24.5633 0.298828 24.4094 0.309863C24.3325 0.309863 24.2666 0.320899 24.1897 0.320899C21.3326 0.574712 18.7063 2.34037 17.4646 5.15438C17.3877 5.34198 17.2888 5.51854 17.2009 5.69511C16.4866 7.06349 15.4207 8.16702 14.0691 8.96157L13.9922 9.00571C12.6406 9.78922 11.1461 10.1534 9.60773 10.0982C9.40994 10.0872 9.21214 10.0761 9.00336 10.0541C5.94851 9.72301 3.12444 11.1355 1.46515 13.4861C1.4212 13.5523 1.37724 13.6074 1.34428 13.6737C1.25637 13.8061 1.16846 13.9385 1.09154 14.082C1.01462 14.2254 0.937696 14.3578 0.860776 14.5013C0.82781 14.5675 0.794844 14.6337 0.761878 14.6999C-0.446872 17.3264 -0.238088 20.4935 1.56405 22.9875Z" fill="#21A092"/>
<path d="M0.761968 41.0635C0.794934 41.1297 0.8279 41.1959 0.860866 41.2621C0.926798 41.4056 1.00372 41.549 1.09163 41.6814C1.16855 41.8249 1.25646 41.9573 1.34437 42.0898C1.38832 42.156 1.42129 42.2111 1.46524 42.2774C3.11354 44.6279 5.94861 46.0404 9.00345 45.7093C9.20124 45.6873 9.39904 45.6762 9.60782 45.6652C11.1462 45.61 12.6407 45.9742 13.9923 46.7577L14.0692 46.8018C15.4208 47.5853 16.4867 48.6999 17.201 50.0683C17.2999 50.2449 17.3878 50.4214 17.4647 50.609C18.7064 53.423 21.3437 55.1887 24.1897 55.4425C24.2667 55.4535 24.3326 55.4535 24.4095 55.4535C24.5634 55.4646 24.7282 55.4646 24.893 55.4646C25.0578 55.4646 25.2117 55.4646 25.3655 55.4535C25.4424 55.4535 25.5084 55.4425 25.5853 55.4425C28.4423 55.1887 31.0686 53.423 32.3103 50.609C32.3873 50.4214 32.4862 50.2449 32.5741 50.0683C33.2993 48.6999 34.3542 47.5853 35.7058 46.8018L35.7828 46.7577C37.1344 45.9742 38.6288 45.61 40.1672 45.6652C40.365 45.6762 40.5628 45.6873 40.7716 45.7093C43.8264 46.0404 46.6505 44.6279 48.3098 42.2774C48.3538 42.2111 48.3977 42.156 48.4307 42.0898C48.5186 41.9573 48.6065 41.8249 48.6834 41.6814C48.7603 41.538 48.8373 41.4056 48.9142 41.2621C48.9471 41.1959 48.9801 41.1297 49.0131 41.0635C50.2218 38.4481 50.013 35.2809 48.2109 32.798C48.09 32.6325 47.9801 32.4669 47.8703 32.3014C46.5626 30.7454 44.6835 29.664 42.5078 29.4322C38.3871 28.9908 34.3103 29.5978 30.5302 31.1648C29.5302 31.5841 28.5632 32.0586 27.6072 32.6104C26.6622 33.1622 25.7611 33.7691 24.904 34.4312C24.0469 33.7691 23.1458 33.1622 22.2008 32.6104C21.2558 32.0586 20.2778 31.5841 19.2778 31.1648C15.4977 29.5978 11.4209 28.9908 7.30021 29.4322C5.12446 29.664 3.2454 30.7454 1.93775 32.3014C1.82787 32.4669 1.71798 32.6435 1.5971 32.798C-0.237998 35.2809 -0.446782 38.4481 0.761968 41.0635Z" fill="#21A092"/>
<path d="M1.56429 22.9873C1.68517 23.1529 1.79506 23.3184 1.90494 23.4839C3.21259 25.0399 5.09165 26.1214 7.2674 26.3531C11.3881 26.7945 15.4649 26.1876 19.245 24.6206C18.7176 20.5485 17.1901 16.6972 14.7507 13.3424C13.465 11.5658 11.5969 10.4622 9.59699 10.1091C9.39919 10.0981 9.2014 10.087 8.99261 10.0649C5.93777 9.73389 3.11369 11.1464 1.45441 13.4969C1.41045 13.5631 1.3665 13.6183 1.33353 13.6845C1.24562 13.817 1.15772 13.9494 1.08079 14.0928C1.00387 14.2363 0.926954 14.3687 0.850034 14.5122C0.817068 14.5784 0.784102 14.6446 0.751136 14.7108C-0.446625 17.3262 -0.237841 20.4933 1.56429 22.9873Z" fill="#216E70"/>
<path d="M42.4859 29.421C38.3652 28.9796 34.2884 29.5865 30.5083 31.1535C31.0358 35.2256 32.5632 39.0769 35.0027 42.4317C36.2883 44.2084 38.1564 45.3119 40.1563 45.665C40.3541 45.6761 40.5519 45.6871 40.7607 45.7092C43.8155 46.0402 46.6396 44.6277 48.2989 42.2772C48.3429 42.211 48.3868 42.1558 48.4198 42.0896C48.5077 41.9571 48.5956 41.8247 48.6725 41.6813C48.7494 41.5378 48.8264 41.4054 48.9033 41.2619C48.9362 41.1957 48.9692 41.1295 49.0022 41.0633C50.2109 38.4479 50.0021 35.2808 48.2 32.7978C48.0791 32.6323 47.9692 32.4667 47.8594 32.3012C46.5407 30.7342 44.6617 29.6527 42.4859 29.421Z" fill="#216E70"/>
<path d="M35.0027 13.3426C32.5632 16.7084 31.0358 20.5597 30.5083 24.6208C34.2884 26.1878 38.3652 26.7947 42.4859 26.3533C44.6617 26.1216 46.5407 25.0401 47.8484 23.4841C47.9583 23.3186 48.0682 23.142 48.189 22.9875C49.9912 20.4935 50.2 17.3264 48.9912 14.7221C48.9582 14.6558 48.9253 14.5896 48.8923 14.5234C48.8264 14.38 48.7495 14.2365 48.6615 14.1041C48.5846 13.9606 48.4967 13.8282 48.4088 13.6958C48.3649 13.6296 48.3319 13.5744 48.2879 13.5082C46.6396 11.1576 43.8046 9.74512 40.7497 10.0762C40.5519 10.0982 40.3431 10.1093 40.1453 10.1203C38.1564 10.4624 36.2883 11.5659 35.0027 13.3426Z" fill="#216E70"/>
<path d="M17.3992 11.8087C19.0804 15.6048 21.6408 18.8603 24.8824 21.3543C28.1241 18.8603 30.6844 15.6048 32.3657 11.8087C33.2558 9.80025 33.2668 7.62629 32.5745 5.70614C32.4756 5.52958 32.3877 5.35301 32.3107 5.16541C31.069 2.3514 28.4318 0.585747 25.5857 0.331934C25.5088 0.320899 25.4428 0.320899 25.3659 0.320899C25.2011 0.298828 25.0363 0.298828 24.8824 0.298828C24.7176 0.298828 24.5638 0.298828 24.4099 0.309863C24.333 0.309863 24.2671 0.320899 24.1901 0.320899C21.3331 0.574712 18.7068 2.34037 17.4651 5.15438C17.3882 5.34198 17.2893 5.51854 17.2014 5.69511C16.4981 7.62629 16.5091 9.80025 17.3992 11.8087Z" fill="#216E70"/>
<path d="M14.7509 42.4317C17.1904 39.0659 18.7178 35.2145 19.2453 31.1535C15.4652 29.5865 11.3884 28.9796 7.26764 29.421C5.09189 29.6527 3.21283 30.7342 1.90518 32.2902C1.7953 32.4557 1.68541 32.6323 1.56454 32.7868C-0.2376 35.2808 -0.446384 38.4479 0.762366 41.0633C0.795332 41.1295 0.828298 41.1957 0.861264 41.2619C0.927196 41.4054 1.00412 41.5488 1.09203 41.6813C1.16895 41.8247 1.25685 41.9571 1.34476 42.0896C1.38872 42.1558 1.42168 42.211 1.46564 42.2772C3.11393 44.6277 5.949 46.0402 9.00384 45.7092C9.20164 45.6871 9.39943 45.6761 9.60822 45.665C11.5972 45.3119 13.4652 44.2084 14.7509 42.4317Z" fill="#216E70"/>
<path d="M68.6503 21.0562C71.9908 21.0562 74.3424 23.0094 74.3424 26.0662V34.0227H71.2106V32.246H70.859C70.4524 33.0847 69.5733 34.3758 66.9141 34.3758C64.079 34.3758 62.2109 32.8529 62.2109 30.4362C62.2109 28.4278 63.9581 27.0263 66.3646 26.7725L71.1777 26.2428V25.8345C71.1777 24.6647 70.3206 23.6495 68.5404 23.6495C66.7712 23.6495 65.7603 24.6647 65.101 26.0883L62.5186 24.5102C63.4856 23.0646 65.3097 21.0562 68.6503 21.0562ZM67.6943 31.7384C69.925 31.7384 71.1667 30.4141 71.1667 28.6926V28.3836L67.3207 28.8361C66.1339 28.9906 65.5515 29.5203 65.5515 30.2596C65.5405 31.1204 66.2767 31.7384 67.6943 31.7384Z" fill="#216E70"/>
<path d="M81.4846 21.0562C84.4186 21.0562 86.4954 22.4025 87.9349 23.9253L85.7811 25.8345C84.3416 24.1571 82.8911 23.6495 81.6274 23.6495C80.3637 23.6495 79.7813 24.1571 79.7813 24.8413C79.7813 25.5255 80.4187 25.8786 81.6055 26.0883L83.1219 26.3421C85.8581 26.7945 88.0118 27.7436 88.0118 30.2265C88.0118 32.7095 85.7811 34.3648 82.6933 34.3648C79.4517 34.3648 77.0781 32.7095 75.8145 30.701L78.3199 29.1561C79.4627 31.1866 81.1329 31.7715 82.6494 31.7715C84.1219 31.7715 84.924 31.1866 84.924 30.4252C84.924 29.6637 84.2647 29.3106 83.001 29.1009L81.4846 28.8471C78.5506 28.3615 76.7045 27.269 76.7045 24.9296C76.7045 22.5901 78.5946 21.0562 81.4846 21.0562Z" fill="#216E70"/>
<path d="M90.1333 21.4093H93.2761V23.186H93.6277C94.287 22.1155 95.3969 21.0562 97.6276 21.0562C100.77 21.0562 103.397 23.8481 103.397 27.7105C103.397 31.5728 100.759 34.3648 97.6276 34.3648C95.3969 34.3648 94.287 33.2943 93.6277 32.2349H93.32V39.0989H90.1333V21.4093ZM100.21 27.7215C100.21 25.2827 98.6935 23.9143 96.7704 23.9143C94.7925 23.9143 93.331 25.3379 93.331 27.7215C93.331 30.1051 94.8035 31.5287 96.7704 31.5287C98.6935 31.5287 100.21 30.1603 100.21 27.7215Z" fill="#216E70"/>
<path d="M107.066 15.5718C108.33 15.5718 109.319 16.4656 109.319 17.7568C109.319 19.0479 108.33 19.9418 107.066 19.9418C105.802 19.9418 104.813 19.0479 104.813 17.7568C104.813 16.4546 105.802 15.5718 107.066 15.5718ZM108.66 34.0229H105.473V21.4095H108.66V34.0229Z" fill="#216E70"/>
<path d="M113.374 21.4092V17.4917H116.561V21.4092H120.001V24.1019H116.561V30.5575C116.561 31.0652 116.814 31.319 117.264 31.319H119.286V34.0116H115.847C114.429 34.0116 113.363 32.9963 113.363 31.5728V24.1019H110.177V21.4092H113.374Z" fill="#216E70"/>
</svg>
