<?xml version="1.0" encoding="utf-8"?>
<!-- Generator: Adobe Illustrator 19.2.0, SVG Export Plug-In . SVG Version: 6.00 Build 0)  -->
<svg version="1.1" id="Layer_1" xmlns="http://www.w3.org/2000/svg" xmlns:xlink="http://www.w3.org/1999/xlink" x="0px" y="0px"
	 viewBox="0 0 330.1 110.6" style="enable-background:new 0 0 330.1 110.6;" xml:space="preserve">
<style type="text/css">
	.st0{fill:#000000;}
	.st1{fill:#68A2B9;}
</style>
<path class="st0" d="M4.5,18.9h11.4l12.7,21.5c1.8,3,3.9,7.8,3.9,7.8h0.1c0,0-0.5-4.9-0.5-7.8V18.9h11.2v45.9H32L19.2,43.4
	c-1.8-3-3.9-7.8-3.9-7.8h-0.1c0,0,0.5,4.9,0.5,7.8v21.4H4.5V18.9z"/>
<path class="st0" d="M53.1,18.9h31.1v9.6H64.3v8.4h16.3v9.6H64.3v8.7h20.7v9.6h-32V18.9z"/>
<path class="st0" d="M151.3,28.5h-13.9v-9.6h39.1v9.6h-13.9v36.3h-11.2V28.5z"/>
<path class="st0" d="M202.1,18.1c11.4,0,17.2,6.5,17.2,6.5l-5.2,8.5c0,0-5.1-4.7-11.5-4.7c-8.8,0-13,6.5-13,13.1
	c0,6.8,4.5,13.8,13,13.8c6.9,0,12.2-5.7,12.2-5.7l5.8,8.2c0,0-6.5,7.7-18.5,7.7c-14.4,0-24.1-10.2-24.1-23.8
	C178,28.4,188.3,18.1,202.1,18.1z"/>
<path class="st0" d="M247,18.1c13.9,0,24,10.3,24,23.5c0,13.5-10.2,24-24,24c-13.9,0-24-10.5-24-24C223,28.4,233.2,18.1,247,18.1z
	 M247,55.3c6.9,0,12.4-5.9,12.4-13.7c0-7.5-5.5-13.2-12.4-13.2c-6.9,0-12.4,5.7-12.4,13.2C234.6,49.4,240.2,55.3,247,55.3z"/>
<path class="st0" d="M280.1,18.9h12.2l6.7,19.4c1,3,2.3,7.6,2.3,7.6h0.1c0,0,1.3-4.6,2.3-7.6l6.7-19.4h12.2l3.7,45.9h-11.2
	l-1.4-20.7c-0.3-3.5,0-7.7,0-7.7h-0.1c0,0-1.5,4.8-2.6,7.7l-4.8,13.3h-9.6l-4.8-13.3c-1-2.9-2.6-7.7-2.6-7.7H289c0,0,0.3,4.2,0,7.7
	l-1.4,20.7h-11.3L280.1,18.9z"/>
<g>
	<path class="st0" d="M225.2,91h-1.3l0.2-1.3h7.7c0.8,0,1.1,0.4,1.1,0.8c0,0.2,0,0.5-0.1,0.8l-0.2,1.1h-1.3l0.1-0.6
		c0-0.2,0.1-0.4,0.1-0.5c0-0.2-0.1-0.3-0.4-0.3h-4.4l-1.1,5.5h5.3l-0.3,1.3h-5.3l-1.3,6.5h-1.4L225.2,91z"/>
	<path class="st0" d="M233.4,102.9l2.1-11.2c0-0.2,0.1-0.3,0.1-0.5c0-0.2-0.1-0.3-0.4-0.3h-0.9l0.2-1.2h1.4c0.7,0,1.1,0.3,1.1,0.9
		c0,0.2,0,0.4-0.1,0.6l-2.2,11.2c0,0.1-0.1,0.3-0.1,0.4c0,0.2,0.1,0.3,0.4,0.3h0.9l-0.2,1.2h-1.4c-0.7,0-1.1-0.3-1.1-0.9
		C233.3,103.2,233.3,103,233.4,102.9z"/>
	<path class="st0" d="M236.2,107.6l0.7-1c0,0,0.6,0.8,1.5,0.8c0.9,0,1.6-0.8,2.2-1.7l0.9-1.5l-2-8.6c-0.1-0.4-0.3-0.5-0.6-0.5h-0.2
		l0.2-1.2h0.9c0.7,0,0.9,0.4,1,1.1l1.4,6.5c0.1,0.5,0.1,1.1,0.1,1.1h0c0,0,0.3-0.6,0.6-1.1l3.8-6.5c0.5-0.9,0.9-1.1,1.8-1.1h0.7
		l-0.2,1.2h-0.2c-0.4,0-0.6,0.1-0.8,0.5l-6.6,10.9c-0.8,1.3-1.9,2.1-3.3,2.1C236.9,108.6,236.2,107.6,236.2,107.6z"/>
	<path class="st0" d="M250.7,100.4l1.1-5.4h-1.4l0.2-1.2h1.4l0.6-2.9h1.4l-0.6,2.9h2.6l-0.2,1.2h-2.6l-1,5.2c-0.1,0.4-0.1,0.7-0.1,1
		c0,1.7,1.2,1.8,1.9,1.8c0.3,0,0.5,0,0.5,0l-0.2,1.3c0,0-0.2,0-0.6,0c-1.1,0-3-0.4-3-2.8C250.6,101.2,250.6,100.8,250.7,100.4z"/>
	<path class="st0" d="M265.6,107.3c2,0,3.9-0.9,4.4-3.7c0.2-0.9,0.3-1.3,0.3-1.3h0c-0.8,1.2-2,1.9-3.5,1.9c-2.5,0-3.9-1.6-3.9-4.1
		c0-2.9,1.9-6.4,5.5-6.4c1.7,0,3,0.7,3.3,1.9h0c0,0,0-0.1,0-0.5c0.1-0.8,0.6-1.2,1.4-1.2h1.5l-0.2,1.2h-0.9c-0.3,0-0.5,0.1-0.6,0.4
		l-1.7,8.6c-0.6,3.2-3.2,4.5-5.6,4.5c-1.6,0-2.7-0.4-3.5-0.8l0.7-1.1C262.8,106.6,264,107.3,265.6,107.3z M267,102.9
		c2.7,0,4-3.1,4-5.5c0-1.9-1.2-2.5-2.7-2.5c-2.6,0-4.1,2.6-4.1,5.1C264.3,101.8,265.3,102.9,267,102.9z"/>
	<path class="st0" d="M275.5,102.8l1.4-6.9c0-0.2,0.1-0.3,0.1-0.5c0-0.2-0.1-0.3-0.4-0.3h-0.9l0.2-1.2h1.4c0.7,0,1.1,0.3,1.1,0.9
		c0,0.2,0,0.4-0.1,0.6l-1.4,7c0,0.1-0.1,0.3-0.1,0.4c0,0.2,0.1,0.3,0.4,0.3h0.9l-0.2,1.2h-1.4c-0.7,0-1.1-0.3-1.1-0.9
		C275.4,103.2,275.5,103,275.5,102.8z M278,89.7h1.4l-0.4,1.8h-1.4L278,89.7z"/>
	<path class="st0" d="M282.4,95.5c0-0.2,0-0.5-0.4-0.5h-0.9l0.2-1.2h1.4c0.8,0,1.1,0.3,1.1,0.8c0,0.3-0.2,1.4-0.4,1.9h0
		c0.7-1.5,2.1-2.9,3.8-2.9c0.2,0,0.4,0,0.6,0.1l-0.3,1.4c-0.1,0-0.3,0-0.5,0c-2.2,0-3.8,2.7-4.3,5.1l-0.8,4h-1.4L282.4,95.5z"/>
	<path class="st0" d="M296.2,95h-1.3l0.2-1.2h1.3l0.1-0.4c0.6-3.4,3-3.9,4.2-3.9c0.5,0,0.8,0,0.8,0l-0.3,1.2c0,0-0.2,0-0.5,0
		c-0.8,0-2.3,0.3-2.8,2.6l-0.1,0.4h2.7l-0.2,1.2h-2.7l-1.8,9.2h-1.4L296.2,95z"/>
	<path class="st0" d="M307.4,97.8h0.7l0-0.3c0.1-0.4,0.1-0.6,0.1-1c0-1.2-0.7-1.8-2.1-1.8c-0.7,0-2.2,0.2-2.3,0.9l-0.1,0.7h-1.4
		l0.2-1c0.3-1.3,2.4-1.8,3.8-1.8c2.3,0,3.3,1.2,3.3,2.9c0,0.4,0,0.8-0.1,1.3l-0.9,4.5c0,0.1-0.1,0.4-0.1,0.5c0,0.2,0.1,0.3,0.4,0.3
		h0.9l-0.2,1.2h-1.3c-0.8,0-1.1-0.3-1.1-0.8c0-0.3,0.1-0.9,0.2-1.3h0c0,0-1.3,2.4-3.9,2.4c-1.6,0-3-0.8-3-2.7
		C300.4,98.6,304.2,97.8,307.4,97.8z M303.7,103.3c2.1,0,3.8-2.4,4-3.9l0.1-0.5h-0.6c-1.8,0-5.4,0.2-5.4,2.6
		C301.8,102.7,302.6,103.3,303.7,103.3z"/>
	<path class="st0" d="M313.7,95.5c0-0.2,0-0.5-0.4-0.5h-0.9l0.2-1.2h1.4c0.8,0,1.1,0.3,1.1,0.8c0,0.3-0.2,1.4-0.4,1.9h0
		c0.7-1.5,2.1-2.9,3.8-2.9c0.2,0,0.4,0,0.6,0.1l-0.3,1.4c-0.1,0-0.3,0-0.5,0c-2.2,0-3.8,2.7-4.3,5.1l-0.8,4h-1.4L313.7,95.5z"/>
	<path class="st0" d="M320.6,100.4l1.1-5.4h-1.4l0.2-1.2h1.4l0.6-2.9h1.4l-0.6,2.9h2.6l-0.2,1.2H323l-1,5.2c-0.1,0.4-0.1,0.7-0.1,1
		c0,1.7,1.2,1.8,1.9,1.8c0.3,0,0.5,0,0.5,0l-0.2,1.3c0,0-0.2,0-0.6,0c-1.1,0-3-0.4-3-2.8C320.4,101.2,320.5,100.8,320.6,100.4z"/>
</g>
<g>
	<rect x="179.2" y="76.4" class="st1" width="147.7" height="3.6"/>
</g>
<g>
	<polygon class="st1" points="141.8,2.5 136.3,2.5 120.1,29.2 118.5,26.6 133.1,2.6 127.6,2.6 115.8,22.1 103.8,2.5 98.3,2.5 
		113,26.6 115.8,31 117.4,33.7 120.1,38.1 136.5,64.8 141.8,64.8 122.8,33.7 	"/>
	<polygon class="st1" points="115.8,36.3 114.2,33.7 111.4,29.2 95.1,2.5 89.7,2.5 108.7,33.7 80.6,79.9 86,79.9 111.5,38.1 
		113.1,40.7 89.2,79.9 94.6,79.9 115.8,45.2 127.8,64.8 133.2,64.8 118.5,40.7 	"/>
</g>
</svg>
