    <svg width="115" height="31.000000002965216" viewBox="0 0 115 31" xmlns="http://www.w3.org/2000/svg"><g fill="#000" fill-rule="evenodd"><path d="M108.856 0v20.36L95.912 0h-6.308v29.903h5.57V8.89l13.314 21.014h5.94V0zM30.37 30h20.142v-5.518H30.37zM30.37 17.759h20.142V12.24H30.37zM30.37 5.518h20.142V0H30.37zM60.054 30h20.143v-5.518H60.054zM60.054 17.759h20.143V12.24H60.054zM60.054 5.518h20.143V0H60.054zM12.033 15.283c.781-.288 1.412-.686 1.892-1.193s.823-1.09 1.028-1.749a6.99 6.99 0 00.31-2.097c0-1.536-.488-2.757-1.461-3.662-.974-.905-2.53-1.357-4.67-1.357H5.595v10.49h3.537c1.153 0 2.119-.144 2.9-.432zM0 0h9.626c1.783 0 3.367.254 4.751.761 1.385.508 2.558 1.22 3.518 2.14a9.195 9.195 0 012.2 3.29c.508 1.276.761 2.695.761 4.258 0 1.81-.431 3.504-1.296 5.08-.863 1.577-2.118 2.805-3.763 3.682l6.006 10.82h-6.377l-4.812-9.174h-5.02v9.174H0V0z"></path></g></svg>
