<?xml version="1.0" encoding="UTF-8"?>
<svg width="2001px" height="509px" viewBox="0 0 2001 509" version="1.1" xmlns="http://www.w3.org/2000/svg" xmlns:xlink="http://www.w3.org/1999/xlink">
    <!-- Generator: Sketch 59.1 (86144) - https://sketch.com -->
    <title>Artboard</title>
    <desc>Created with Sketch.</desc>
    <g id="Artboard" stroke="none" stroke-width="1" fill="none" fill-rule="evenodd">
        <g id="logo">
            <g id="Elements">
                <g id="Group">
                    <g transform="translate(611.000000, 6.000000)" fill="#250E62" fill-rule="nonzero">
                        <path d="M4.74,230.93 C3.54,230.93 2.39,231.42 1.54,232.27 C0.7,233.13 0.24,234.29 0.268619277,235.5 C1.79,295.96 42.78,338.23 120.16,338.23 C202.32,338.23 236.78,289.42 236.78,237.09 C236.78,190.92 207.03,167.17 153.68,145.62 C94.66,122.75 75.77,116.6 76.25,92.41 C76.25,70.42 96.08,55.47 119.22,55.47 C151.09,55.47 158.74,76.9 161.95,91.95 C162.39,94.01 164.21,95.49 166.32,95.49 C177.98,95.49 214.28,95.49 227.33,95.49 C228.57,95.49 229.76,94.97 230.61,94.06 C231.46,93.15 231.89,91.92 231.79,90.68 C226.47,22.35 166.81,0.5 121.58,0.5 C64.92,0.5 5.9,34.36 5.9,96.81 C5.9,158.38 66.81,178.61 93.25,187.4 C141.88,205.43 166.91,212.47 166.91,240.17 C166.91,263.04 146.14,283.27 119.22,283.27 C104.59,283.27 74.44,275.43 70.42,234.97 C70.2,232.68 68.27,230.94 65.98,230.94 C53.7,230.93 17.5,230.93 4.74,230.93 L4.74,230.93 Z" id="Path"></path>
                        <path d="M528.27,218.6 C530.56,218.6 532.48,216.85 532.7,214.57 C536.76,169.79 524.8,129.65 494.25,97.27 C470.3,71.65 436.49,56.66 397.98,56.66 C320.03,56.66 262.74,122.89 262.74,198.3 C262.74,272.26 319.56,338.49 398.92,338.49 C425.69,338.49 451.05,330.76 472.65,315.29 C492.69,301.39 509.9,281.25 522.03,254.87 C522.66,253.49 522.54,251.89 521.73,250.62 C520.91,249.35 519.5,248.58 517.99,248.58 C504.14,248.58 473.15,248.58 463.98,248.58 C462.39,248.58 460.92,249.43 460.12,250.81 C448.23,271.29 428.4,284.35 399.39,284.35 C364.67,284.83 328.59,261.82 324.87,220.42 C324.83,219.96 324.99,219.5 325.3,219.15 C325.62,218.81 326.06,218.61 326.53,218.61 C345.07,218.6 501.13,218.6 528.27,218.6 L528.27,218.6 Z M327.52,170.26 C327.04,170.26 326.59,170.06 326.27,169.7 C325.95,169.34 325.81,168.87 325.86,168.4 C329.19,142.58 353.97,110.32 398.45,110.32 C442.42,109.85 468.08,143.41 471.49,168.39 C471.55,168.86 471.4,169.34 471.09,169.7 C470.77,170.06 470.32,170.26 469.84,170.26 C454.07,170.26 343.26,170.26 327.52,170.26 L327.52,170.26 Z" id="Shape"></path>
                        <path d="M569.39,325.82 C569.39,327 569.86,328.13 570.69,328.96 C571.52,329.8 572.66,330.26 573.83,330.26 C585.18,330.26 615.11,330.26 626.45,330.26 C627.63,330.26 628.76,329.79 629.59,328.96 C630.43,328.13 630.89,327 630.89,325.82 C630.89,301.65 630.89,187.18 630.89,187.18 C630.89,141.26 652.96,120.47 696.16,120.47 L696.16,120.47 C696.91,120.47 697.63,120.17 698.15,119.64 C698.68,119.11 698.98,118.39 698.98,117.65 C698.98,107.63 698.98,73.65 698.98,61.24 C698.98,60.02 698.48,58.86 697.6,58.02 C696.72,57.18 695.53,56.74 694.31,56.8 C659.44,58.63 639.69,75.82 628.65,97.54 C628.53,97.77 628.28,97.89 628.03,97.83 C627.78,97.77 627.6,97.55 627.6,97.29 C627.6,91.52 627.6,76.77 627.6,69.32 C627.6,68.14 627.13,67.01 626.3,66.18 C625.47,65.34 624.33,64.88 623.16,64.88 C612.32,64.88 584.66,64.88 573.82,64.88 C572.64,64.88 571.51,65.35 570.68,66.18 C569.84,67.01 569.38,68.14 569.38,69.32 C569.39,101.16 569.39,293.99 569.39,325.82 L569.39,325.82 Z" id="Path"></path>
                        <path d="M987.51,69.33 C987.51,66.87 985.52,64.88 983.06,64.88 C971.64,64.88 941.39,64.88 929.97,64.88 C927.51,64.88 925.52,66.87 925.52,69.33 C925.52,77.12 925.52,92.93 925.52,98.58 C925.52,98.83 925.35,99.05 925.11,99.12 C924.87,99.18 924.61,99.08 924.49,98.86 C909.49,73.75 878.18,57.14 841.94,57.14 C770.56,57.14 710.45,112.25 710.45,198.78 C710.45,280.48 767.74,338.48 841.94,338.48 C884.45,338.48 911.39,316.04 924.49,292.99 C924.61,292.77 924.87,292.66 925.11,292.72 C925.36,292.78 925.53,293 925.53,293.26 C925.53,298.84 925.53,313.34 925.53,313.34 C925.53,367 885.61,393.1 848.99,393.1 C841.48,393.1 827.86,391.17 815.18,383.91 C804.67,378.5 795.38,370.14 789.6,359.23 C788.84,357.76 787.32,356.84 785.66,356.84 C775.14,356.83 737.29,356.83 722.76,356.83 C721.37,356.83 720.06,357.48 719.22,358.58 C718.38,359.68 718.1,361.12 718.47,362.46 C729.99,402.29 768.56,447.23 845.23,447.23 C898.29,447.23 941.5,423.06 963.57,392.6 C979.54,370.36 987.52,342.33 987.52,298.82 C987.51,298.85 987.51,101.62 987.51,69.33 L987.51,69.33 Z M771.96,196.85 C771.96,149.48 807.18,116.12 848.97,116.12 C875.74,116.12 894.99,126.75 907.2,142.71 C919.88,158.18 925.98,179.45 925.98,199.75 C925.51,222.47 917.53,242.29 903.91,256.31 C890.29,270.81 871.98,279.03 848.97,279.03 C804.36,279.03 771.96,243.74 771.96,197.34 L771.96,196.85 L771.96,196.85 Z" id="Shape"></path>
                        <path d="M1286.85,218.6 C1289.14,218.6 1291.06,216.85 1291.28,214.57 C1295.34,169.79 1283.38,129.65 1252.83,97.27 C1228.88,71.65 1195.07,56.66 1156.56,56.66 C1078.61,56.66 1021.32,122.89 1021.32,198.3 C1021.32,272.26 1078.14,338.49 1157.5,338.49 C1184.27,338.49 1209.63,330.76 1231.23,315.29 C1251.27,301.39 1268.48,281.25 1280.61,254.87 C1281.24,253.49 1281.12,251.89 1280.3,250.62 C1279.48,249.35 1278.07,248.58 1276.56,248.58 C1262.7,248.58 1231.71,248.58 1222.55,248.58 C1220.96,248.58 1219.49,249.43 1218.69,250.81 C1206.79,271.29 1186.97,284.35 1157.96,284.35 C1123.24,284.83 1087.16,261.82 1083.44,220.42 C1083.4,219.96 1083.56,219.5 1083.87,219.15 C1084.19,218.81 1084.63,218.61 1085.1,218.61 C1103.65,218.6 1259.7,218.6 1286.85,218.6 L1286.85,218.6 Z M1086.1,170.26 C1085.62,170.26 1085.17,170.06 1084.85,169.7 C1084.53,169.34 1084.38,168.87 1084.44,168.4 C1087.78,142.58 1112.55,110.32 1157.03,110.32 C1201,109.85 1226.66,143.41 1230.07,168.39 C1230.13,168.86 1229.98,169.34 1229.66,169.7 C1229.34,170.06 1228.89,170.26 1228.41,170.26 C1212.64,170.26 1101.84,170.26 1086.1,170.26 L1086.1,170.26 Z" id="Shape"></path>
                        <path d="M1328.43,325.82 C1328.43,327 1328.9,328.13 1329.73,328.96 C1330.56,329.8 1331.69,330.26 1332.87,330.26 C1344.22,330.26 1374.15,330.26 1385.49,330.26 C1386.67,330.26 1387.8,329.79 1388.63,328.96 C1389.47,328.13 1389.93,327 1389.93,325.82 C1389.93,289.86 1389.93,47.03 1389.93,11.06 C1389.93,9.88 1389.46,8.75 1388.63,7.91 C1387.8,7.08 1386.67,6.61 1385.49,6.61 C1374.14,6.61 1344.21,6.61 1332.87,6.61 C1331.69,6.61 1330.56,7.08 1329.73,7.91 C1328.89,8.75 1328.43,9.88 1328.43,11.06 C1328.43,47.03 1328.43,289.86 1328.43,325.82 L1328.43,325.82 Z" id="Path"></path>
                    </g>
                    <g transform="translate(617.000000, 400.000000)" fill="#250E62" fill-rule="nonzero">
                        <path d="M33.11,102.24 C33.34,102.92 33.98,103.39 34.7,103.39 C37.97,103.39 46.97,103.39 50.29,103.39 C51.03,103.39 51.69,102.9 51.9,102.19 C54.4,93.75 69.31,43.39 71.94,34.5 C71.99,34.32 72.16,34.2 72.34,34.2 C72.53,34.2 72.69,34.32 72.74,34.5 C75.44,43.38 90.76,93.8 93.31,102.2 C93.52,102.91 94.17,103.39 94.91,103.39 C98.22,103.39 107.24,103.39 110.51,103.39 C111.23,103.39 111.87,102.93 112.1,102.24 C115.42,92.16 139.51,18.99 144.01,5.32 C144.18,4.81 144.09,4.25 143.78,3.81 C143.46,3.37 142.96,3.12 142.42,3.12 C138.23,3.12 129.51,3.12 126.28,3.12 C125.54,3.12 124.89,3.6 124.68,4.31 C122,13.13 105.26,68.33 102.46,77.57 C102.41,77.74 102.24,77.87 102.06,77.87 C101.88,77.87 101.71,77.75 101.66,77.57 C98.96,68.79 83.49,18.57 80.91,10.2 C80.69,9.5 80.05,9.02 79.31,9.02 C76.35,9.02 68.89,9.02 65.92,9.02 C65.18,9.02 64.53,9.5 64.32,10.21 C61.78,18.6 46.58,68.78 43.92,77.57 C43.87,77.75 43.7,77.87 43.52,77.87 C43.34,77.87 43.17,77.75 43.12,77.57 C40.27,68.33 23.26,13.1 20.54,4.3 C20.32,3.6 19.67,3.12 18.94,3.12 C15.69,3.12 6.85,3.12 2.62,3.12 C2.08,3.12 1.58,3.38 1.26,3.81 C0.94,4.25 0.86,4.81 1.03,5.32 C5.56,19 29.78,92.17 33.11,102.24 L33.11,102.24 Z" id="Path"></path>
                        <path d="M251,59.34 C251.87,59.34 252.6,58.67 252.67,57.79 C253.87,41.6 248.89,26.52 237.58,14.91 C228.1,5.51 215.15,0.16 200.92,0.16 C170.83,0.16 148.58,24.68 148.58,53.43 C148.58,79.97 168.64,106.33 201.11,106.33 C211.14,106.33 220.99,103.56 229.38,97.85 C237.15,92.72 243.68,85.23 248.36,75.35 C248.61,74.83 248.57,74.22 248.26,73.74 C247.95,73.26 247.42,72.96 246.85,72.96 C242.45,72.96 233.7,72.96 230.74,72.96 C230.13,72.96 229.57,73.29 229.27,73.83 C223.72,83.82 214.05,89.92 201.11,89.92 C186.32,89.92 169.03,79.82 167.77,59.99 C167.76,59.82 167.82,59.65 167.94,59.52 C168.06,59.39 168.22,59.32 168.4,59.32 C175.64,59.34 240.18,59.34 251,59.34 L251,59.34 Z M168.77,44.4 C168.59,44.4 168.43,44.33 168.31,44.2 C168.19,44.07 168.13,43.9 168.15,43.72 C169.43,30.29 181.91,16.57 200.93,16.57 C219.39,16.21 232.39,30.62 233.7,43.72 C233.72,43.89 233.66,44.07 233.54,44.2 C233.42,44.33 233.25,44.4 233.08,44.4 C226.54,44.4 175.29,44.4 168.77,44.4 L168.77,44.4 Z" id="Shape"></path>
                        <path d="M378.75,68.18 C378.08,68.18 377.48,68.58 377.21,69.19 C372.92,78.81 362.67,88.28 346.63,88.46 C327.66,88.46 312.71,73.9 312.71,53.25 C312.71,43.11 316.54,33.71 322.38,27.81 C329.31,21.17 336.61,17.86 346.64,18.04 C359.79,18.04 371.89,25.21 377.23,38.01 C377.49,38.64 378.1,39.05 378.78,39.05 C381.93,39.05 390.8,39.05 394.96,39.05 C395.49,39.05 395.99,38.8 396.3,38.38 C396.62,37.96 396.71,37.41 396.56,36.9 C389.67,14.03 368.91,0.16 345.91,0.16 C316.18,0.16 293.75,23.57 293.75,53.25 C293.75,81.08 314.36,106.34 346.82,106.34 C370.79,106.34 389.82,91.02 396.5,70.36 C396.66,69.85 396.57,69.3 396.25,68.87 C395.93,68.44 395.43,68.19 394.9,68.19 C390.73,68.18 381.86,68.18 378.75,68.18 L378.75,68.18 Z" id="Path"></path>
                        <path d="M516.62,4.79 C516.62,3.86 515.87,3.12 514.94,3.12 C511.35,3.12 502.92,3.12 499.32,3.12 C498.87,3.12 498.45,3.3 498.14,3.61 C497.83,3.92 497.65,4.35 497.65,4.79 C497.65,8.15 497.65,15.69 497.65,19.09 C497.65,19.28 497.52,19.45 497.33,19.5 C497.14,19.55 496.95,19.46 496.86,19.29 C491.74,10.09 479.47,0.17 460.81,0.17 C431.99,0.17 409.93,22.66 409.93,53.26 C409.93,81.28 428.9,106.35 460.81,106.35 C475.93,106.35 489.69,99.85 496.87,87.33 C496.96,87.16 497.16,87.08 497.34,87.13 C497.52,87.18 497.65,87.34 497.65,87.53 C497.65,90.86 497.65,98.37 497.65,101.72 C497.65,102.65 498.4,103.39 499.32,103.39 C502.92,103.39 511.34,103.39 514.94,103.39 C515.87,103.39 516.62,102.64 516.62,101.72 C516.62,89.7 516.62,16.8 516.62,4.79 L516.62,4.79 Z M428.9,53.44 C428.9,34.64 442.4,18.05 463.19,18.05 C479.06,18.05 490.18,27.08 494.93,38.69 C497.12,43.3 498.03,48.46 497.85,53.62 C497.67,58.78 496.57,63.94 494.38,68.55 C489.45,79.98 478.69,88.46 463.56,88.46 C439.49,88.46 429.09,68.55 428.91,53.62 L428.91,53.44 L428.9,53.44 Z" id="Shape"></path>
                        <path d="M541.61,101.71 C541.61,102.64 542.36,103.38 543.28,103.38 C546.88,103.38 555.3,103.38 558.9,103.38 C559.83,103.38 560.57,102.63 560.57,101.71 C560.57,92.58 560.57,49.19 560.57,49.19 C560.57,29.28 569.87,19.33 587.74,19.33 L587.74,19.33 C588.08,19.33 588.4,19.19 588.64,18.96 C588.88,18.72 589.01,18.4 589.01,18.06 C589.01,14.72 589.01,5.7 589.01,1.89 C589.01,1.43 588.82,0.99 588.49,0.68 C588.16,0.36 587.71,0.2 587.25,0.22 C575.2,0.83 565.78,6.06 560.25,16.31 C560.16,16.48 559.97,16.56 559.78,16.52 C559.59,16.47 559.46,16.31 559.46,16.11 C559.46,13.25 559.46,7.6 559.46,4.78 C559.46,4.33 559.28,3.91 558.97,3.6 C558.66,3.29 558.23,3.11 557.79,3.11 C554.38,3.11 546.67,3.11 543.27,3.11 C542.34,3.11 541.6,3.86 541.6,4.78 C541.61,16.8 541.61,89.7 541.61,101.71 L541.61,101.71 Z" id="Path"></path>
                        <path d="M692.73,59.34 C693.6,59.34 694.33,58.67 694.4,57.79 C695.6,41.6 690.62,26.52 679.31,14.91 C669.83,5.51 656.88,0.16 642.65,0.16 C612.56,0.16 590.31,24.68 590.31,53.43 C590.31,79.97 610.37,106.33 642.84,106.33 C652.87,106.33 662.72,103.56 671.11,97.85 C678.89,92.72 685.41,85.23 690.09,75.35 C690.33,74.83 690.3,74.22 689.99,73.74 C689.68,73.26 689.15,72.96 688.58,72.96 C684.18,72.96 675.43,72.96 672.47,72.96 C671.86,72.96 671.3,73.29 671,73.83 C665.45,83.82 655.78,89.92 642.84,89.92 C628.05,89.92 610.76,79.82 609.5,59.99 C609.49,59.82 609.55,59.65 609.67,59.52 C609.79,59.39 609.95,59.32 610.13,59.32 C617.37,59.34 681.91,59.34 692.73,59.34 L692.73,59.34 Z M610.5,44.4 C610.33,44.4 610.16,44.33 610.04,44.2 C609.92,44.07 609.86,43.9 609.88,43.72 C611.16,30.29 623.64,16.57 642.66,16.57 C661.12,16.21 674.12,30.62 675.43,43.72 C675.45,43.89 675.39,44.07 675.27,44.2 C675.15,44.33 674.98,44.4 674.81,44.4 C668.27,44.4 617.02,44.4 610.5,44.4 L610.5,44.4 Z" id="Shape"></path>
                    </g>
                    <g id="Path">
                        <polyline fill="#FF8674" points="109.24 127.83 0.95 0.95 109.24 254.71 400.18 254.71 508.48 508.48 400.18 381.6 0.95 381.6 0.95 0.95 400.18 0.95 400.18 127.83 109.24 127.83"></polyline>
                        <polyline fill="#250E62" points="400.18 381.6 508.48 508.48 400.18 254.71 109.24 254.71 0.95 0.95 109.24 127.83 508.48 127.83 508.48 508.48 109.24 508.48 109.24 381.6 400.18 381.6"></polyline>
                    </g>
                </g>
            </g>
        </g>
    </g>
</svg>